<svg width="124" height="89" viewBox="0 0 124 89" fill="none" xmlns="http://www.w3.org/2000/svg">
<path d="M77.2168 61.9625C78.8068 65.1856 81.2738 67.8948 84.3344 69.7786C87.395 71.6625 90.925 72.6447 94.5188 72.6123C101.786 72.6123 106.429 68.9787 106.429 63.9613C106.429 57.9497 101.658 55.8177 93.6629 52.3173L89.2759 50.4364C76.6223 45.0449 68.2122 38.2902 68.2122 24.0119C68.2122 10.856 78.2367 0.846917 93.8987 0.846917C98.9819 0.478074 104.061 1.61586 108.501 4.11803C112.941 6.6202 116.545 10.3757 118.863 14.915L105.204 23.6839C104.31 21.4345 102.753 19.5106 100.739 18.1676C98.7247 16.8247 96.3497 16.1264 93.9294 16.1655C92.8745 16.0594 91.8089 16.1743 90.8008 16.5028C89.7927 16.8313 88.8641 17.3664 88.0743 18.0738C87.2845 18.7811 86.6507 19.6453 86.2134 20.6113C85.7762 21.5772 85.545 22.6237 85.5347 23.6839C85.5347 28.9473 88.7942 31.0742 96.2972 34.3337L100.684 36.2094C115.588 42.6003 123.998 49.1142 123.998 63.7614C123.998 79.5515 111.595 88.2025 94.9339 88.2025C88.444 88.6154 81.9732 87.1414 76.3023 83.9586C70.6314 80.7758 66.0027 76.02 62.9744 70.265L77.2168 61.9625ZM15.2658 63.5C18.023 68.3893 20.5292 72.52 26.5408 72.52C32.3013 72.52 35.94 70.265 35.94 61.5013V1.87192H53.4778V61.7473C53.4778 79.9052 42.828 88.1718 27.289 88.1718C21.8001 88.4689 16.3498 87.0975 11.6552 84.2379C6.96061 81.3783 3.24163 77.1646 0.987549 72.151L15.2658 63.5Z" fill="#FBC02D"/>
</svg>
