<svg width="135" height="135" viewBox="0 0 135 135" fill="none" xmlns="http://www.w3.org/2000/svg">
<path d="M59.0871 0.604464C62.9224 0.150615 66.7857 -0.152128 70.6456 0.0800498C75.817 0.38967 80.9993 0.888863 85.8156 2.95407C90.7374 5.06518 94.3589 8.55642 96.0851 13.7744C96.3895 14.7361 96.5475 15.7383 96.5529 16.747C96.69 23.4991 96.8232 30.2513 96.7423 35.4834C96.7423 40.8666 96.8308 44.7335 96.7218 48.5898C96.5495 54.462 93.7788 58.8563 88.8888 62.0722C85.8268 64.0847 82.4096 64.1238 79.0031 64.1836C72.8578 64.3067 66.698 64.1561 60.5597 64.3672C56.2706 64.5149 51.9216 64.0709 47.6994 65.042C39.6134 66.8998 32.2587 75.2707 32.2482 83.8418C32.2482 88.0076 32.1992 92.1769 32.1535 96.3427C32.1324 98.0527 32.0482 99.7597 32.006 101.47C32.006 101.976 32.0057 102.455 31.3029 102.451C26.2545 102.423 21.1672 102.648 16.1857 101.955C10.958 101.237 7.31537 97.9158 4.89662 93.3418C2.47791 88.7677 1.31811 83.8207 0.629047 78.7822C-0.56275 70.095 -0.119977 61.4811 2.46401 53.0332C4.75272 45.5531 9.40737 40.4759 17.0958 38.414C18.3766 38.1051 19.6918 37.9619 21.0089 37.9883L34.9767 37.8974C46.1738 37.8341 57.3708 37.7525 68.5714 37.7314C69.6859 37.7314 70.0308 37.4044 69.9464 36.3242C69.8673 35.229 69.8673 34.1293 69.9464 33.0342C70.0026 32.1443 69.6476 31.9192 68.8078 31.9297C65.6015 31.9719 62.3948 31.9472 59.1886 31.9472H38.7628C37.9508 31.9472 37.4518 31.8768 37.4728 30.8427C37.5888 25.2307 37.6451 19.6216 37.9826 14.0166C38.299 8.73893 41.2975 5.48397 45.9064 3.53122C50.1005 1.75086 54.5976 1.13224 59.0871 0.604464ZM50.881 12.8906C47.4252 12.4896 45.0105 16.121 45.0773 18.6718C45.1652 22.0461 47.5875 24.5791 50.9484 24.5791C54.3722 24.5788 56.9979 22.0743 56.9982 18.8271C56.9876 15.3227 54.4951 12.8906 50.881 12.8906Z" fill="#62B0F5"/>
<path d="M103.665 32.1721C107.616 32.239 111.565 32.2494 115.516 32.3303C121.292 32.45 125.564 35.0329 128.661 39.758C131.389 43.9204 132.404 48.6848 133.42 53.4524C134.605 59.0046 134.475 64.6486 134.099 70.2219C133.744 75.89 132.76 81.5407 129.948 86.6565C127.199 91.6211 122.986 94.6432 117.558 96.1174C116.121 96.5041 114.638 96.6955 113.15 96.6848C105.497 96.6496 97.8536 96.6672 90.2213 96.6672C82.0931 96.6672 73.9679 96.6917 65.8433 96.6389C64.6728 96.6389 64.2823 96.9413 64.3912 98.1057C64.4826 99.1991 64.4826 100.298 64.3912 101.392C64.3138 102.423 64.6449 102.74 65.7066 102.733C72.5127 102.683 79.3224 102.708 86.1285 102.708C89.2925 102.708 92.4567 102.74 95.6207 102.687C96.6085 102.687 96.8933 102.975 96.8687 103.964C96.7527 109.091 96.725 114.221 96.609 119.351C96.4683 125.533 93.4446 129.333 87.6509 131.412C83.016 133.067 78.1547 134.001 73.2369 134.181C66.3674 134.455 59.4588 134.759 52.6841 132.992C47.9207 131.75 43.7515 129.586 40.7632 125.554C39.0183 123.269 38.0344 120.494 37.9507 117.619C37.6519 108.63 37.8341 99.6394 37.8306 90.6496C37.8306 88.3276 37.7709 85.981 38.0767 83.6907C38.597 79.8203 40.5168 76.5898 43.5015 74.053C46.4863 71.5161 49.9111 70.3415 53.8873 70.2746C64.1633 70.0987 74.436 70.1193 84.7086 69.968C87.7319 69.9257 90.3618 68.4169 92.7945 66.802C97.6144 63.6142 100.736 59.1769 101.914 53.4875C102.448 50.898 102.304 48.2486 102.311 45.6203C102.311 41.5846 102.35 37.5486 102.294 33.5129C102.294 32.4574 102.645 32.1545 103.665 32.1721ZM83.3658 109.854C80.2791 109.847 77.5152 112.736 77.5152 115.938C77.5627 117.51 78.2126 119.003 79.3297 120.11C80.4465 121.216 81.9454 121.849 83.5162 121.88C85.0654 121.864 86.5467 121.239 87.6382 120.139C88.7298 119.039 89.3446 117.552 89.3492 116.001C89.3562 112.546 86.7406 109.879 83.3658 109.854Z" fill="#62B0F5"/>
</svg>
